<?xml version="1.0" encoding="UTF-8"?>
<svg id="Layer_3" data-name="Layer 3" xmlns="http://www.w3.org/2000/svg" viewBox="0 0 200 36">
  <defs>
    <style>
      .cls-1 {
        fill: #7537d6;
      }
    </style>
  </defs>
  <g id="Updates">
    <g>
      <g>
        <g>
          <polygon class="cls-1" points="192.01 29.02 190.78 29.02 190.78 28.33 194.01 28.33 194.01 29.02 192.78 29.02 192.78 33.01 192.01 33.01 192.01 29.02"/>
          <polygon class="cls-1" points="194.83 28.33 195.68 28.33 197.41 32.06 199.14 28.33 200 28.33 200 33.02 199.23 33.02 199.23 29.78 199.19 29.78 197.7 33.02 197.12 33.02 195.64 29.78 195.6 29.78 195.6 33.02 194.83 33.02 194.83 28.33"/>
        </g>
        <g>
          <path class="cls-1" d="M67.18,20.32c2.01-.85,3.64-1.96,4.88-3.35,1.24-1.39,1.86-3.25,1.86-5.58,0-2.89-1.01-5.11-3.02-6.68-2.01-1.56-4.88-2.34-8.61-2.34h-13.53v30.64h7.19v-12.08h3.86l6.92,12.08h7.72l-7.28-12.7ZM66.03,14.17c-.62.66-1.63.98-3.02.98h-7.05v-7h7.05c1.39,0,2.4.33,3.02.98.62.66.93,1.5.93,2.52s-.31,1.86-.93,2.52"/>
          <path class="cls-1" d="M87.54,16.38h3.19v9.89c0,1.4.21,2.57.64,3.5.43.93,1,1.69,1.71,2.25.71.57,1.5.98,2.37,1.23.87.25,1.75.37,2.64.37.98,0,1.81-.07,2.51-.2.69-.13,1.34-.31,1.93-.55l-.62-5.47c-.62.23-1.32.35-2.09.35s-1.33-.25-1.77-.74c-.44-.5-.67-1.18-.67-2.06v-8.58h4.57v-5.08h-4.57v-5.87h-6.65v5.87h-3.19v5.08Z"/>
          <path class="cls-1" d="M127.36,18.4c0-1.15-.19-2.18-.58-3.09-.38-.91-.92-1.69-1.62-2.34-.7-.65-1.54-1.15-2.53-1.49-.99-.35-2.08-.52-3.26-.52-1.72,0-3.18.32-4.39.97-1.21.65-2.26,1.52-3.15,2.62V2.74h-6.65v30.27h6.65v-10.34c0-1.7.44-3.06,1.33-4.07.89-1.01,2.03-1.51,3.42-1.51s2.39.4,3.08,1.21c.69.81,1.04,1.89,1.04,3.24v11.46h6.65v-14.62Z"/>
          <path class="cls-1" d="M130.56,24.44c0,1.49.21,2.8.64,3.94.43,1.14,1.01,2.09,1.75,2.87.74.77,1.6,1.36,2.59,1.77s2.05.61,3.17.61c1.89,0,3.35-.36,4.37-1.07,1.02-.71,1.84-1.61,2.46-2.69v3.15h6.65V11.3h-6.65v10.46c0,1.58-.37,2.91-1.11,4.01-.74,1.09-1.85,1.64-3.33,1.64-1.27,0-2.24-.39-2.91-1.16-.67-.77-1-1.86-1-3.26v-11.69h-6.65v13.13Z"/>
          <path class="cls-1" d="M188.68,18.57c0-2.39-.64-4.3-1.93-5.73-1.29-1.43-3.04-2.15-5.26-2.15-1.42,0-2.71.24-3.86.72s-2.17,1.34-3.06,2.56c-.59-.99-1.4-1.79-2.42-2.39-1.02-.6-2.24-.9-3.66-.9-1.09,0-2.2.21-3.33.63-1.12.42-2.16,1.22-3.11,2.39v-2.41h-6.65v21.71h6.65v-12.3c0-1.4.36-2.44,1.09-3.13.72-.69,1.53-1.03,2.42-1.03,1.09,0,1.89.34,2.4,1.01.5.67.75,1.49.75,2.45v13h6.65v-12.3c0-1.4.35-2.44,1.04-3.13.69-.69,1.52-1.03,2.46-1.03,1.12,0,1.93.28,2.42.85.49.57.73,1.39.73,2.47v13.13h6.65v-14.45Z"/>
          <rect class="cls-1" x="77.66" y="11.3" width="6.65" height="21.71"/>
          <path class="cls-1" d="M84.34,6.03c0,1.81-1.49,3.28-3.33,3.28s-3.33-1.47-3.33-3.28,1.49-3.28,3.33-3.28,3.33,1.47,3.33,3.28"/>
        </g>
      </g>
      <g>
        <path class="cls-1" d="M18.51,9.18v9.14h-9.22C4.14,18.33,0,14.2,0,9.18c0-2.51,1.02-4.81,2.69-6.46,1.67-1.72,3.99-2.72,6.61-2.72s4.86,1,6.53,2.72c1.67,1.65,2.69,3.94,2.69,6.46"/>
        <path class="cls-1" d="M18.51,21.24v5.46c0,5.16-4.14,9.3-9.22,9.3-2.61,0-4.94-1.02-6.61-2.76-1.67-1.67-2.69-4-2.69-6.54v-10.19c2.11,2.91,5.52,4.73,9.29,4.73h9.22Z"/>
        <path class="cls-1" d="M21.45,18.33h5.61c5.18,0,9.33-4.1,9.33-9.13,0-2.59-1.02-4.89-2.77-6.54C31.95,1.01,29.61,0,27.06,0h-10.35c2.92,2.08,4.74,5.46,4.74,9.2v9.13Z"/>
      </g>
    </g>
  </g>
</svg>